<mxfile host="app.diagrams.net" agent="Mozilla/5.0 (Windows NT 10.0; Win64; x64) AppleWebKit/537.36 (KHTML, like Gecko) Chrome/131.0.0.0 Safari/537.36 OPR/116.0.0.0" version="26.0.16">
  <diagram name="PÃ¡gina-1" id="Z4Zo7Dh48uncTTbTTV46">
    <mxGraphModel dx="1392" dy="753" grid="1" gridSize="10" guides="1" tooltips="1" connect="1" arrows="1" fold="1" page="1" pageScale="1" pageWidth="827" pageHeight="1169" math="0" shadow="0">
      <root>
        <mxCell id="0" />
        <mxCell id="1" parent="0" />
        <mxCell id="a-UDAPN0JxDAJYNZsara-1" style="edgeStyle=orthogonalEdgeStyle;rounded=0;orthogonalLoop=1;jettySize=auto;html=1;entryX=0.5;entryY=0;entryDx=0;entryDy=0;" edge="1" parent="1" source="a-UDAPN0JxDAJYNZsara-2" target="a-UDAPN0JxDAJYNZsara-8">
          <mxGeometry relative="1" as="geometry" />
        </mxCell>
        <mxCell id="a-UDAPN0JxDAJYNZsara-2" value="Estudante" style="swimlane;fontStyle=1;align=center;verticalAlign=top;childLayout=stackLayout;horizontal=1;startSize=26;horizontalStack=0;resizeParent=1;resizeParentMax=0;resizeLast=0;collapsible=1;marginBottom=0;whiteSpace=wrap;html=1;fillColor=#e6d0de;strokeColor=#996185;gradientColor=#d5739d;rounded=1;" vertex="1" parent="1">
          <mxGeometry x="670" y="220" width="210" height="138" as="geometry" />
        </mxCell>
        <mxCell id="a-UDAPN0JxDAJYNZsara-3" value="- nome: String" style="text;strokeColor=#996185;fillColor=#e6d0de;align=left;verticalAlign=top;spacingLeft=4;spacingRight=4;overflow=hidden;rotatable=0;points=[[0,0.5],[1,0.5]];portConstraint=eastwest;whiteSpace=wrap;html=1;gradientColor=#d5739d;rounded=1;" vertex="1" parent="a-UDAPN0JxDAJYNZsara-2">
          <mxGeometry y="26" width="210" height="26" as="geometry" />
        </mxCell>
        <mxCell id="a-UDAPN0JxDAJYNZsara-4" value="- email: String" style="text;strokeColor=#996185;fillColor=#e6d0de;align=left;verticalAlign=top;spacingLeft=4;spacingRight=4;overflow=hidden;rotatable=0;points=[[0,0.5],[1,0.5]];portConstraint=eastwest;whiteSpace=wrap;html=1;gradientColor=#d5739d;rounded=1;" vertex="1" parent="a-UDAPN0JxDAJYNZsara-2">
          <mxGeometry y="52" width="210" height="26" as="geometry" />
        </mxCell>
        <mxCell id="a-UDAPN0JxDAJYNZsara-5" value="- quarto: int" style="text;strokeColor=#996185;fillColor=#e6d0de;align=left;verticalAlign=top;spacingLeft=4;spacingRight=4;overflow=hidden;rotatable=0;points=[[0,0.5],[1,0.5]];portConstraint=eastwest;whiteSpace=wrap;html=1;gradientColor=#d5739d;rounded=1;" vertex="1" parent="a-UDAPN0JxDAJYNZsara-2">
          <mxGeometry y="78" width="210" height="26" as="geometry" />
        </mxCell>
        <mxCell id="a-UDAPN0JxDAJYNZsara-6" value="" style="line;strokeWidth=1;fillColor=#e6d0de;align=left;verticalAlign=middle;spacingTop=-1;spacingLeft=3;spacingRight=3;rotatable=0;labelPosition=right;points=[];portConstraint=eastwest;strokeColor=#996185;gradientColor=#d5739d;rounded=1;" vertex="1" parent="a-UDAPN0JxDAJYNZsara-2">
          <mxGeometry y="104" width="210" height="8" as="geometry" />
        </mxCell>
        <mxCell id="a-UDAPN0JxDAJYNZsara-7" value="+ Estudante(n, e, q)" style="text;strokeColor=#996185;fillColor=#e6d0de;align=left;verticalAlign=top;spacingLeft=4;spacingRight=4;overflow=hidden;rotatable=0;points=[[0,0.5],[1,0.5]];portConstraint=eastwest;whiteSpace=wrap;html=1;gradientColor=#d5739d;rounded=1;" vertex="1" parent="a-UDAPN0JxDAJYNZsara-2">
          <mxGeometry y="112" width="210" height="26" as="geometry" />
        </mxCell>
        <mxCell id="a-UDAPN0JxDAJYNZsara-8" value="Pensionato" style="swimlane;fontStyle=1;align=center;verticalAlign=top;childLayout=stackLayout;horizontal=1;startSize=26;horizontalStack=0;resizeParent=1;resizeParentMax=0;resizeLast=0;collapsible=1;marginBottom=0;whiteSpace=wrap;html=1;fillColor=#e6d0de;strokeColor=#996185;gradientColor=#d5739d;rounded=1;" vertex="1" parent="1">
          <mxGeometry x="670" y="490" width="210" height="112" as="geometry" />
        </mxCell>
        <mxCell id="a-UDAPN0JxDAJYNZsara-9" value="- quartos: ArrayList&amp;lt;Estudante&amp;gt;&amp;nbsp;" style="text;strokeColor=#996185;fillColor=#e6d0de;align=left;verticalAlign=top;spacingLeft=4;spacingRight=4;overflow=hidden;rotatable=0;points=[[0,0.5],[1,0.5]];portConstraint=eastwest;whiteSpace=wrap;html=1;gradientColor=#d5739d;rounded=1;" vertex="1" parent="a-UDAPN0JxDAJYNZsara-8">
          <mxGeometry y="26" width="210" height="26" as="geometry" />
        </mxCell>
        <mxCell id="a-UDAPN0JxDAJYNZsara-10" value="" style="line;strokeWidth=1;fillColor=#e6d0de;align=left;verticalAlign=middle;spacingTop=-1;spacingLeft=3;spacingRight=3;rotatable=0;labelPosition=right;points=[];portConstraint=eastwest;strokeColor=#996185;gradientColor=#d5739d;rounded=1;" vertex="1" parent="a-UDAPN0JxDAJYNZsara-8">
          <mxGeometry y="52" width="210" height="8" as="geometry" />
        </mxCell>
        <mxCell id="a-UDAPN0JxDAJYNZsara-11" value="+ registrarAluguel(n, e, q): void" style="text;strokeColor=#996185;fillColor=#e6d0de;align=left;verticalAlign=top;spacingLeft=4;spacingRight=4;overflow=hidden;rotatable=0;points=[[0,0.5],[1,0.5]];portConstraint=eastwest;whiteSpace=wrap;html=1;gradientColor=#d5739d;rounded=1;" vertex="1" parent="a-UDAPN0JxDAJYNZsara-8">
          <mxGeometry y="60" width="210" height="26" as="geometry" />
        </mxCell>
        <mxCell id="a-UDAPN0JxDAJYNZsara-12" value="+ exibirRelatorio(): void" style="text;strokeColor=#996185;fillColor=#e6d0de;align=left;verticalAlign=top;spacingLeft=4;spacingRight=4;overflow=hidden;rotatable=0;points=[[0,0.5],[1,0.5]];portConstraint=eastwest;whiteSpace=wrap;html=1;gradientColor=#d5739d;rounded=1;" vertex="1" parent="a-UDAPN0JxDAJYNZsara-8">
          <mxGeometry y="86" width="210" height="26" as="geometry" />
        </mxCell>
      </root>
    </mxGraphModel>
  </diagram>
</mxfile>
